#!OML:ASF F:\VICON\USERDATA\INSTALL\rory3\rory3.ASF
:FULLY-SPECIFIED
:DEGREES
201
root 0.138554 17.7917 10.8059 -2.92095 -2.3126 -3.77056
lowerback 9.5821 2.27125 3.47568
upperback 0.440613 3.44218 0.864847
thorax -4.7604 1.6329 -1.51179
lowerneck -16.0563 -3.70895 -1.24362
upperneck 20.1218 -5.21303 1.68736
head 9.04194 -2.35092 0.132635
rclavicle 4.5969e-016 -7.55382e-015
rhumerus -23.2976 -16.4024 -80.2412
rradius 32.3351
rwrist -0.790264
rhand -19.1466 21.0138
rfingers 7.12502
rthumb 7.16362 -8.84493
lclavicle 4.5969e-016 -7.55382e-015
lhumerus -37.1713 13.5815 78.2307
lradius 13.8224
lwrist -5.5634
lhand -26.3557 28.7602
lfingers 7.12502
lthumb 0.202164 58.7398
rfemur 7.51951 2.52531 27.518
rtibia 43.443
rfoot -2.76126 6.15992
rtoes 0.905141
lfemur -22.5354 -1.59594 -18.986
ltibia 27.7188
lfoot -2.41275 -2.27689
ltoes -6.56336
202
root 0.167946 17.8051 11.0065 -3.22265 -2.27872 -3.65224
lowerback 9.72159 2.2757 3.5163
upperback 0.53619 3.45261 0.805142
thorax -4.73174 1.63807 -1.6019
lowerneck -16.0637 -3.7495 -1.16515
upperneck 20.1655 -5.28189 1.64764
head 9.05594 -2.38089 0.097078
rclavicle -1.46045e-014 -4.17448e-015
rhumerus -23.681 -17.0086 -79.9968
rradius 31.7005
rwrist -0.0607925
rhand -19.3086 22.3921
rfingers 7.12502
rthumb 7.00722 -7.4719
lclavicle -1.46045e-014 -4.17448e-015
lhumerus -37.1631 13.7762 78.0118
lradius 13.8661
lwrist -6.05298
lhand -28.0151 26.6571
lfingers 7.12502
lthumb -1.40048 56.6323
rfemur 6.55025 1.89242 26.89
rtibia 45.902
rfoot -0.00195224 6.92829
rtoes 1.04811
lfemur -21.712 -1.39504 -19.2685
ltibia 28.1767
lfoot -3.24119 -2.21536
ltoes -2.44953
203
root 0.195761 17.8055 11.2013 -3.45579 -2.48818 -3.70769
lowerback 9.93999 2.31691 3.73005
upperback 0.526575 3.53981 0.777835
thorax -4.84516 1.67328 -1.77208
lowerneck -16.0685 -3.7641 -1.24473
upperneck 20.4397 -5.3371 1.84792
head 9.16109 -2.38726 0.168446
rclavicle -2.07016e-014 1.96797e-014
rhumerus -24.2137 -17.4168 -79.8431
rradius 31.3867
rwrist 0.531749
rhand -19.5358 22.7288
rfingers 7.12502
rthumb 6.78794 -7.14235
lclavicle -2.07016e-014 1.96797e-014
lhumerus -37.4417 13.2636 78.1159
lradius 14.3034
lwrist -6.53464
lhand -29.0681 28.3467
lfingers 7.12502
lthumb -2.41752 58.3128
rfemur 5.40263 1.47522 26.4687
rtibia 48.4622
rfoot 2.93423 7.86564
rtoes 3.88054
lfemur -20.9902 -0.812503 -19.4798
ltibia 28.3798
lfoot -3.20342 -2.72346
ltoes -5.22452
204
root 0.223242 17.8304 11.3945 -3.56298 -2.62166 -3.51246
lowerback 10.1748 2.32404 3.56796
upperback 0.41948 3.54394 0.757133
thorax -5.09721 1.67155 -1.71893
lowerneck -16.2174 -3.77167 -1.36709
upperneck 20.8502 -5.35617 1.96496
head 9.33873 -2.386 0.219355
rclavicle 4.97847e-014 1.95803e-014
rhumerus -24.8965 -17.4225 -79.6646
rradius 31.4276
rwrist 0.755186
rhand -19.3964 22.5501
rfingers 7.12502
rthumb 6.92247 -7.3167
lclavicle 4.97847e-014 1.95803e-014
lhumerus -37.8468 12.3446 78.5473
lradius 14.9491
lwrist -5.47247
lhand -28.2913 26.2661
lfingers 7.12502
lthumb -1.66727 56.2393
rfemur 4.05149 1.09514 25.8372
rtibia 50.9747
rfoot 5.94269 8.34389
rtoes 10.8221
lfemur -20.1528 -0.698416 -19.7404
ltibia 28.804
lfoot -4.41214 -2.80698
ltoes 1.42033
205
root 0.247317 17.8397 11.5854 -3.72125 -2.72193 -3.04419
lowerback 10.211 2.36536 3.13577
upperback 0.551634 3.541 0.654603
thorax -4.998 1.68254 -1.58197
lowerneck -16.4055 -3.80481 -1.29888
upperneck 20.8314 -5.40156 1.89452
head 9.36345 -2.40789 0.174625
rclavicle -3.00988e-014 -4.47266e-016
rhumerus -25.081 -17.5653 -79.6122
rradius 31.2308
rwrist 0.847604
rhand -19.1225 22.6949
rfingers 7.12502
rthumb 7.18686 -7.16309
lclavicle -3.00988e-014 -4.47266e-016
lhumerus -37.7931 11.4453 79.0684
lradius 15.4695
lwrist -3.78023
lhand -28.1254 22.8136
lfingers 7.12502
lthumb -1.50707 52.7881
rfemur 2.62674 0.702166 24.9632
rtibia 53.615
rfoot 8.76881 8.48999
rtoes 17.3664
lfemur -19.4525 -0.228139 -20.5095
ltibia 28.9162
lfoot -4.32588 -2.88287
ltoes -2.84152
206
root 0.265462 17.8578 11.774 -3.90476 -2.84988 -2.64014
lowerback 10.228 2.42042 2.73523
upperback 0.748593 3.55855 0.560581
thorax -4.81816 1.70437 -1.45346
lowerneck -16.522 -3.78059 -1.21864
upperneck 20.6392 -5.36993 1.84505
head 9.31346 -2.39358 0.148137
rclavicle 1.42131e-014 -1.13307e-014
rhumerus -24.956 -17.6218 -79.6638
rradius 30.7705
rwrist 0.862628
rhand -19.1142 22.9268
rfingers 7.12502
rthumb 7.19494 -6.9309
lclavicle 1.42131e-014 -1.13307e-014
lhumerus -37.3607 11.2507 79.1699
lradius 15.5171
lwrist -3.44027
lhand -27.914 27.8352
lfingers 7.12502
lthumb -1.3029 57.811
rfemur 1.2221 0.479711 24.2648
rtibia 56.2167
rfoot 11.2238 7.89194
rtoes 24.2035
lfemur -18.4515 -0.229094 -20.972
ltibia 28.9844
lfoot -5.10304 -2.63292
ltoes 1.09298
